<?xml version="1.0" encoding="utf-8"?>
<!-- Generator: Adobe Illustrator 16.0.0, SVG Export Plug-In . SVG Version: 6.00 Build 0)  -->
<!DOCTYPE svg PUBLIC "-//W3C//DTD SVG 1.1//EN" "http://www.w3.org/Graphics/SVG/1.1/DTD/svg11.dtd">
<svg version="1.1" id="Layer_1" xmlns="http://www.w3.org/2000/svg" xmlns:xlink="http://www.w3.org/1999/xlink" x="0px" y="0px"
	 width="785px" height="250px" viewBox="0 0 785 250" enable-background="new 0 0 785 250" xml:space="preserve">
<g>
	<g>
		<path fill-rule="evenodd" clip-rule="evenodd" fill="none" d="M384,251c-126.167,0-252.333-0.02-378.5,0.095
			c-3.75,0.003-4.615-0.843-4.598-4.595C1.066,210.334,1,174.167,1,138c1.104,0.211,0.973,1.073,1.078,1.894
			c2.101,16.496,6.826,32.174,15.156,46.612c5.646,9.788,11.724,19.316,20.74,26.504c20.986,21.925,47.099,33.572,76.854,36.627
			c26.116,2.68,50.761-3.35,73.388-16.713c9.225-5.448,18.4-11.172,24.999-20.001c1.887,0.192,3.076-0.916,4.21-2.197
			c28.55-32.242,39.271-69.739,29.798-111.625C232.859,35.591,175.599-4.516,111.243,2.272C60.986,7.573,17.045,46.199,5.073,95.343
			C3.564,101.54,3.517,108.04,1,114C1,77.167,1.045,40.333,0.916,3.5C0.905,0.517,1.519-0.082,4.5-0.081
			c259.333,0.087,518.667,0.087,778,0c2.981-0.001,3.595,0.597,3.584,3.581C785.954,39.333,786,75.167,786,111
			c-1.879-1.153-1.451-3.243-1.701-4.875C773.707,37.078,706.091-11.062,635.243,4.028c-54.421,11.591-95.789,58.912-98.205,115.279
			c-1.732,40.431,12.88,74.038,43.063,100.906c1.256,1.118,2.255,3.078,4.536,2.418c1.529,3.048,4.044,4.779,7.331,5.477
			c2.553,3.354,5.988,5.354,9.976,6.509c0.495,0.44,0.926,1.003,1.495,1.304c24.601,13.023,50.779,16.915,78.095,12.673
			c21.763-3.38,41.121-12.542,58.305-26.299c0.697-0.425,1.471-0.76,2.079-1.287c22.66-19.658,36.849-44.166,42.188-73.742
			c0.332-1.839-0.046-3.984,1.895-5.265c0,35-0.063,70,0.099,105c0.017,3.426-0.675,4.099-4.099,4.095C656,250.982,530,251,404,251
			c-0.03-0.323-0.061-0.646-0.091-0.969c15.463-1.612,30.569-4.578,44.496-11.91c8.721-4.591,17.459-9.171,24.194-16.65
			c37.079-33.537,51.457-74.97,40.795-123.819C499.032,31.848,432.89-10.559,367.114,4.316
			c-49.623,11.222-82.075,42.64-94.288,92.008c-11.774,47.592,2.202,88.716,37.767,122.443c1.179,1.118,2.316,2.475,4.241,2.277
			c0.002,1.753,1.312,2.563,2.497,3.464c13.319,10.132,27.929,17.589,44.165,21.922C368.925,248.413,376.567,249.153,384,251z"/>
		<path fill-rule="evenodd" clip-rule="evenodd" fill="#0B9348" d="M37.973,213.01c-9.016-7.188-15.094-16.716-20.74-26.504
			c-8.33-14.438-13.055-30.116-15.156-46.612C1.973,139.073,2.104,138.211,1,138c0-8,0-16,0-24c2.517-5.96,2.564-12.46,4.073-18.657
			c11.972-49.144,55.913-87.77,106.169-93.07c64.356-6.788,121.617,33.318,135.979,96.828c9.472,41.886-1.249,79.383-29.798,111.625
			c-1.135,1.281-2.324,2.39-4.21,2.197c-1.646-0.775-3.228-1.755-4.947-2.295c-15.223-4.775-30.47-9.473-45.71-14.193
			c-2.172-0.774-4.293-1.777-6.527-2.278c-5.35-1.2-7.747-4.603-8.009-9.861c-0.074-1.482-0.295-2.958-0.449-4.437
			c0.051-0.131,0.182-0.304,0.139-0.384c-0.124-0.229-0.317-0.422-0.484-0.629l-0.024-0.087c-0.104-2.288-0.208-4.577-0.313-6.865
			c0.399-0.524,0.695-1.205,1.214-1.55c10.979-7.296,19.682-16.237,21.856-29.951c0.169-1.068,0.724-1.736,1.729-2.21
			c8.827-4.162,11.832-12.174,12.961-20.926c0.679-5.267-0.645-10.345-6.594-12.549c2.059-2.256,3.754-4.724,3.659-7.928
			c-0.125-4.239,0.89-8.259,2.271-12.182c1.533-4.356,0.959-8.49-0.727-12.622c-1.192-2.921-2.401-5.84-3.455-8.813
			c-4.927-13.903-14.501-22.777-28.756-26.482c-5.013-1.303-9.832-3.027-14.519-5.206c-8.085-3.759-16.517-4.361-24.708-0.982
			c-13.084,5.398-24.705,13.015-33.056,24.821c-4.462,6.309-9.189,13.307-8.565,20.836c0.764,9.216,1.067,18.94,5.782,27.499
			c-4.356,1.563-8.325,3.591-8.928,8.855c-1.157,10.102,2.577,18.329,10.351,24.563c1.97,1.58,3.224,3.02,3.753,5.412
			c2.214,10.001,7.38,17.99,15.916,23.887c2.655,1.835,5.855,3.263,7.43,6.434c-0.689,2.035-0.527,4.121-0.374,6.205
			c0.279,9.665-4.056,15.522-13.889,16.876c-0.461,0.063-0.886,0.395-1.328,0.601c-9.795,3.052-19.637,5.963-29.371,9.201
			C52.338,208.079,44.664,209.11,37.973,213.01z"/>
		<path fill-rule="evenodd" clip-rule="evenodd" fill="#ED2039" d="M584.637,222.63c-2.281,0.661-3.28-1.299-4.536-2.417
			c-30.183-26.868-44.795-60.476-43.063-100.906c2.416-56.367,43.784-103.688,98.205-115.279
			c70.848-15.089,138.464,33.05,149.056,102.097c0.25,1.632-0.178,3.723,1.701,4.875c0,10.333,0,20.667,0,31
			c-1.94,1.28-1.563,3.426-1.895,5.265c-5.34,29.576-19.528,54.084-42.188,73.742c-0.608,0.527-1.382,0.862-2.078,1.287
			c-2.472-2.438-5.495-3.913-8.735-5.009c-3.551-2.542-7.476-4.253-11.646-5.533c-11.431-3.512-22.81-7.197-34.255-10.659
			c-3.791-1.146-6.039-3.34-6.408-7.298c-0.4-4.295-0.733-8.598-1.096-12.896c-0.029-2.299-0.059-4.597-0.088-6.896
			c0.82-0.538,1.586-1.198,2.47-1.596c12.859-5.787,22.829-14.069,25.251-28.958c0.254-1.563,1.21-2.437,2.688-3.221
			c9.695-5.144,13.912-15.433,10.842-26.012c11.96-27.959-2.646-63.175-31.78-76.465c-2.466-1.125-4.522-2.549-6.427-4.514
			c-11.571-11.942-30.285-11.368-41.089,1.264c-1.571,1.837-3.324,3.083-5.42,4.175c-17.068,8.898-27.876,22.694-32.329,41.479
			c-2.69,11.348-1.186,22.455,1.533,33.53c-4.685,8.398-0.287,21.425,9.133,26.222c2.193,1.116,3.273,2.361,3.745,4.68
			c1.64,8.047,5.421,14.891,11.841,20.157c-2.39,9.185-8.981,14.896-16.607,19.539c-12.846,7.823-21.124,18.379-21.502,34.021
			c-0.011,0.442-0.425,0.876-0.651,1.313C587.134,219.666,585.571,220.661,584.637,222.63z"/>
		<path fill-rule="evenodd" clip-rule="evenodd" fill="#FCCC10" d="M472.604,221.472c-6.739,7.479-15.478,12.059-24.198,16.649
			c-13.927,7.332-29.033,10.298-44.495,11.91c-4.962,0.446-10.055-1.113-14.91,0.969c-1.667,0-3.333,0-5,0
			c-7.433-1.847-15.075-2.587-22.504-4.569c-16.236-4.333-30.846-11.79-44.165-21.922c-1.185-0.901-2.495-1.711-2.497-3.464
			c5.335-5.039,11.015-9.37,18.889-9.191c4.888,0.621,9.283,2.5,13.35,5.22c4.167,2.788,8.536,5.304,13.359,6.634
			c26.615,7.342,52.59,6.71,77.352-6.868c4.87-2.67,9.818-4.87,15.458-5.088C461.319,211.759,466.736,217.063,472.604,221.472z"/>
		<path fill-rule="evenodd" clip-rule="evenodd" fill="#B9A45B" d="M389,251c4.855-2.082,9.948-0.522,14.91-0.969
			c0.029,0.323,0.06,0.646,0.09,0.969C399,251,394,251,389,251z"/>
		<path fill-rule="evenodd" clip-rule="evenodd" fill="#3067B1" d="M333.722,211.854c-7.874-0.179-13.553,4.152-18.888,9.191
			c-1.925,0.197-3.062-1.159-4.241-2.277c-35.565-33.727-49.541-74.851-37.767-122.443c12.213-49.369,44.665-80.787,94.288-92.008
			c65.776-14.875,131.918,27.532,146.281,93.335c10.662,48.85-3.716,90.282-40.795,123.819c-5.863-4.408-11.28-9.712-19.351-9.719
			c-11.509-3.574-22.978-7.304-34.558-10.65c-4.887-1.413-7.201-4.361-7.572-9.193c-0.354-4.624-0.69-9.25-1.035-13.875
			c0.018-2.333,0.035-4.666,0.053-6.998c1.345-1.591,3.318-2.14,5.102-2.928c14.024-6.197,22.864-16.439,25.126-31.886
			c0.856-0.381,1.712-0.762,2.567-1.142c5.21-1.961,7.795-6.403,10.001-11.01c2.404-5.02,3.754-10.23,0.146-15.392
			c-0.243-2.592,0.377-4.751,2.195-6.834c5.169-5.919,8.902-12.619,9.742-20.615c0.112-1.064,0.536-1.853,1.146-2.673
			c4.694-6.303,4.08-12.945,1.408-19.836c-7.209-18.586-22.859-24.74-40.661-27.423c-3.328-0.501-5.854-1.319-8.207-3.736
			c-4.324-4.443-9.902-7.444-15.949-7.325c-11.361,0.225-22.85-2.33-34.087,1c-5.017,1.487-9.883,3.482-15.164,0.935
			c-1.3-0.628-2.43,0.701-3.646,1.131c-9.045,3.201-14.171,10.6-19.507,17.833c-5.837,7.913-11.46,15.938-14.642,25.37
			c-1.997,5.918-1.565,11.157,3.084,16.086c3.604,3.82,7.252,8.172,7.794,13.66c0.517,5.233,2.944,9.022,6.59,12.372
			c-4.782,9.362,1.257,23.296,11.762,27.142c0.261,0.215,0.561,0.323,0.899,0.322c2.364,10.172,5.704,19.841,15.037,25.89
			c4.964,3.218,10.201,6.015,15.314,9.001c0.019,2.354,0.037,4.708,0.055,7.063c-0.359,4.624-0.834,9.243-1.047,13.874
			c-0.229,4.987-2.633,7.72-7.464,9.157C356.335,204.459,345.052,208.234,333.722,211.854z"/>
		<path fill-rule="evenodd" clip-rule="evenodd" fill="#932B8D" d="M37.973,213.01c6.691-3.899,14.365-4.931,21.568-7.327
			c9.733-3.238,19.575-6.149,29.37-9.201c4.397,7.806,10.036,14.32,18.107,18.647c11.867,6.361,24.364,6.283,36.006,1.197
			c8.559-3.739,15.203-11.104,19.53-19.892c15.24,4.721,30.488,9.418,45.71,14.193c1.72,0.54,3.302,1.52,4.947,2.295
			c-6.599,8.829-15.773,14.553-24.999,20.001c-22.627,13.363-47.271,19.393-73.388,16.713
			C85.072,246.582,58.959,234.935,37.973,213.01z"/>
		<path fill-rule="evenodd" clip-rule="evenodd" fill="#2B1A12" d="M589.308,219.619c0.227-0.438,0.641-0.871,0.651-1.313
			c0.378-15.643,8.656-26.198,21.502-34.021c7.626-4.644,14.218-10.354,16.607-19.539c5.417,3.374,10.842,6.711,16.766,9.189
			c3.125,1.308,6.731,1.521,9.344,4.015c0.082,1.718,0.164,3.436,0.246,5.153c0.637,8.851-1.045,17.08-6.514,24.294
			c-0.422,0.5-0.844,1.001-1.267,1.502c-1.586,1.58-3.173,3.16-4.759,4.741c-0.729,0.29-1.695,0.217-1.931,1.262
			c-4.846,3.521-10.22,5.808-16.037,7.238c-4.923,1.211-9.963,2.176-14.385,4.898c-3.482,1.571-5.66,4.45-7.589,7.578
			c-3.987-1.154-7.423-3.155-9.976-6.509C590.845,225.352,591.763,221.957,589.308,219.619z"/>
		<path fill-rule="evenodd" clip-rule="evenodd" fill="#545DAA" d="M601.943,234.616c1.929-3.128,4.106-6.007,7.59-7.578
			c18.97,6.709,38.118,12.594,58.555,12.29c20.28-0.301,39.271-4.484,54.955-18.482c2.299-2.052,5.171-2.833,8.061-3.561
			c3.24,1.096,6.264,2.571,8.735,5.009c-17.185,13.757-36.543,22.919-58.306,26.299c-27.315,4.242-53.494,0.351-78.095-12.673
			C602.869,235.619,602.438,235.057,601.943,234.616z"/>
		<path fill-rule="evenodd" clip-rule="evenodd" fill="#545DAA" d="M589.308,219.619c2.455,2.338,1.537,5.732,2.66,8.488
			c-3.287-0.697-5.802-2.429-7.331-5.477C585.571,220.661,587.134,219.666,589.308,219.619z"/>
		<path fill-rule="evenodd" clip-rule="evenodd" fill="#F9D3B4" d="M104.502,172.799c-1.575-3.17-4.775-4.598-7.43-6.433
			c-8.536-5.896-13.702-13.886-15.916-23.887c-0.53-2.393-1.783-3.832-3.753-5.412c-7.774-6.234-11.508-14.461-10.351-24.563
			c0.603-5.264,4.572-7.292,8.928-8.854c1.106,1.656,2.086,3.315,2.308,5.402c0.972,9.144,5.838,14.989,14.866,17.205
			c2.442,2.028,11.366,2.517,13.685,0.748c-0.112-0.117-0.224-0.235-0.335-0.353c7.746-2.071,12.894-6.753,14.783-14.71
			c3.415-2.333,6.438-3.524,7.434,2.271c0.109,0.637,1.039,1.133,1.587,1.695l-0.131-0.159c-0.09,0.949-0.052,1.833,1.084,2.168
			l-0.113-0.144c-0.047,0.988,0.024,1.893,1.345,1.924l-0.262-0.107c0.071,0.765,0.553,1.143,1.247,1.319
			c7.671,7.339,17.205,7.357,26.224,4.848c10.215-2.843,12.391-12.342,13.836-23.151c1.027,5.939,2.824,3.583,4.516,2.1
			c5.949,2.204,7.273,7.283,6.594,12.549c-1.129,8.752-4.134,16.764-12.961,20.926c-1.005,0.474-1.56,1.142-1.729,2.21
			c-2.174,13.714-10.877,22.655-21.856,29.951c-0.519,0.345-0.814,1.025-1.214,1.551c-1.297,0.69-2.678,1.259-3.879,2.089
			c-11.581,7.999-23.153,8.663-34.84,0.195C107.149,173.439,105.734,173.246,104.502,172.799z"/>
		<path fill-rule="evenodd" clip-rule="evenodd" fill="#1F201C" d="M121.288,111.942c-1.89,7.957-7.037,12.639-14.783,14.71
			c-4.47,0.542-8.922,0.477-13.35-0.396c-9.028-2.216-13.895-8.062-14.866-17.205c-0.222-2.087-1.202-3.746-2.308-5.402
			c-4.715-8.559-5.019-18.284-5.782-27.5c-0.624-7.53,4.103-14.528,8.565-20.836c8.351-11.806,19.972-19.423,33.056-24.821
			c8.191-3.379,16.623-2.776,24.708,0.982c4.687,2.179,9.506,3.903,14.519,5.206c14.255,3.705,23.829,12.58,28.756,26.482
			c1.054,2.972,2.263,5.891,3.455,8.813c1.686,4.132,2.26,8.266,0.727,12.622c-1.38,3.923-2.396,7.942-2.271,12.182
			c0.095,3.204-1.6,5.671-3.659,7.928c-1.691,1.483-3.488,3.839-4.515-2.1c-1.445,10.809-3.621,20.308-13.836,23.151
			c-9.019,2.51-18.552,2.491-26.224-4.848c-0.416-0.44-0.831-0.879-1.246-1.319c0,0,0.262,0.107,0.259,0.107
			c-0.449-0.642-0.896-1.283-1.343-1.924c0,0,0.113,0.144,0.112,0.143c-0.361-0.723-0.722-1.445-1.083-2.168
			c0,0,0.131,0.159,0.13,0.159c-0.388-1.583-1.008-3.151-1.114-4.752c-0.223-3.355-2.676-2.023-4.348-2.22
			C122.675,108.679,120.816,108.983,121.288,111.942z M134.94,115.02c1.004,3.701,3.705,5.786,7.021,7.19
			c13.795,5.839,25.444-1.282,26.485-16.158c0.329-4.702-2.165-8.393-6.809-8.793c-7.115-0.613-14.311-0.909-21.329,0.983
			c-3.406,0.919-6.065,2.75-6.224,6.765C132.823,108.477,133.284,111.8,134.94,115.02z M94.004,122.95
			c4,1.398,7.994,1.271,11.982-0.046c2.11-0.004,3.854-1.069,5.422-2.233c5.127-3.807,6.188-9.194,5.4-15.132
			c-0.764-5.758-5.051-7.227-9.935-8.011c-5.797-0.932-11.612-0.613-17.421-0.378c-2.608,0.105-4.503,1.651-6.354,3.499
			c-3.727,3.722-0.813,7.386-0.063,10.913C84.291,117.459,87.603,121.801,94.004,122.95z M107.889,92.682
			c5.9,1.556,12.305,2.456,13.354,10.301c3.423,3.194,7.301,2.279,8.481-2c1.871-6.176,7.493-6.693,12.432-8.242
			c6.382-0.856,12.782-0.724,19.186-0.331c1.557,0.165,3.114,0.329,4.671,0.494c2.318,0.34,4.588,1.34,7.469,0.84
			c-1.027-1.875-1.808-3.3-2.589-4.726c1.245-8.046-4.195-14.323-5.784-21.629c-0.365-1.681-1.741-2.03-3.792-2.119
			c-4.784-0.207-9.447-2.082-14.362-0.149c-1.315,0.518-2.577-1.25-3.609-2.321c-1.593-1.654-3.35-2.02-5.37-0.842
			c-3.75,2.186-6.948,1.19-9.922-1.613c-1.371-1.292-3.081-2.438-4.888-1.021c-3.354,2.628-6.375,2.015-9.509-0.334
			c-1.333-0.999-3.401-2.144-4.143,0.144c-1.93,5.952-5.998,4.901-10.463,4.01c-6.717-1.34-14.676,4.421-16.825,10.958
			c-2.083,6.333,1.056,12.873-2.177,19.489c2.505-0.35,4.252-0.593,6-0.837C93.326,92.211,100.604,91.645,107.889,92.682z"/>
		<path fill-rule="evenodd" clip-rule="evenodd" fill="#F9D3B4" d="M162.555,196.435c-4.328,8.787-10.971,16.152-19.53,19.892
			c-11.642,5.086-24.139,5.164-36.006-1.197c-8.072-4.327-13.71-10.842-18.107-18.647c0.442-0.206,0.867-0.537,1.328-0.601
			c9.833-1.354,14.167-7.211,13.889-16.875c14.411,9.278,28.765,8.479,43.073-0.247c0,0,0.024,0.087,0.024,0.087
			c0.114,0.338,0.23,0.675,0.345,1.013c0.154,1.479,0.375,2.954,0.449,4.437c0.262,5.259,2.659,8.661,8.009,9.861
			C158.262,194.657,160.383,195.66,162.555,196.435z"/>
		<path fill-rule="evenodd" clip-rule="evenodd" fill="#CBAB92" d="M147.201,178.759c-14.308,8.726-28.662,9.525-43.073,0.247
			c-0.153-2.085-0.315-4.171,0.374-6.206c1.232,0.446,2.647,0.64,3.667,1.379c11.687,8.468,23.259,7.804,34.84-0.195
			c1.201-0.83,2.582-1.398,3.879-2.089C146.992,174.182,147.097,176.471,147.201,178.759z"/>
		<path fill-rule="evenodd" clip-rule="evenodd" fill="#CBAB92" d="M147.57,179.858c-0.115-0.338-0.231-0.675-0.345-1.013
			c0.167,0.207,0.361,0.399,0.484,0.629C147.752,179.555,147.621,179.728,147.57,179.858z"/>
		<path fill-rule="evenodd" clip-rule="evenodd" fill="#2B1A12" d="M603.35,113.686c-2.719-11.075-4.224-22.182-1.533-33.53
			c4.453-18.785,15.261-32.58,32.329-41.479c2.096-1.092,3.849-2.338,5.42-4.175c10.804-12.632,29.518-13.207,41.089-1.264
			c1.904,1.965,3.961,3.389,6.427,4.514c29.134,13.291,43.74,48.506,31.78,76.465c-0.75-0.309-1.605-0.828-1.825,0.522
			c-0.216,1.323-0.276,2.98-1.879,3.091c-1.719,0.12-2.367-1.628-3.085-2.896c-1.754-3.103-3.014-6.502-2.364-10.022
			c0.62-3.362-0.908-3.265-3.199-2.792c-1.624,0.335-3.26,0.613-4.876,0.982c-16.176,3.696-32.552,4.877-49.113,4.19
			c-11.515-0.478-22.868-1.988-34.142-4.321c-3.5-0.724-7.206-1.692-6.801,4.471c0.145,2.198-1.709,4.596-2.87,6.787
			c-0.75,1.416-1.394,3.646-3.144,3.524C603.563,117.614,604.499,114.873,603.35,113.686z"/>
		<path fill-rule="evenodd" clip-rule="evenodd" fill="#EAC6AD" d="M603.35,113.686c1.149,1.187,0.213,3.928,2.214,4.067
			c1.75,0.121,2.394-2.109,3.144-3.524c1.161-2.191,3.015-4.589,2.87-6.787c-0.405-6.163,3.301-5.195,6.801-4.471
			c11.273,2.333,22.627,3.843,34.142,4.321c16.562,0.688,32.938-0.494,49.113-4.19c1.616-0.369,3.252-0.646,4.876-0.982
			c2.291-0.474,3.819-0.571,3.199,2.792c-0.649,3.52,0.61,6.919,2.364,10.022c0.718,1.268,1.366,3.016,3.085,2.896
			c1.603-0.111,1.663-1.769,1.879-3.091c0.22-1.35,1.075-0.831,1.825-0.522c3.07,10.579-1.146,20.868-10.842,26.012
			c-1.478,0.784-2.434,1.657-2.688,3.221c-2.422,14.889-12.392,23.171-25.251,28.958c-0.884,0.397-1.649,1.058-2.47,1.595
			c-7.722,1.843-15.031,6.137-23.434,3.947c-2.612-2.493-6.219-2.707-9.344-4.015c-5.924-2.479-11.349-5.815-16.766-9.189
			c-6.42-5.267-10.201-12.11-11.841-20.157c-0.472-2.318-1.552-3.563-3.745-4.68C603.063,135.111,598.665,122.084,603.35,113.686z"
			/>
		<path fill-rule="evenodd" clip-rule="evenodd" fill="#EAC6AD" d="M731.104,217.285c-2.89,0.728-5.762,1.509-8.061,3.561
			c-15.684,13.998-34.675,18.182-54.955,18.482c-20.437,0.304-39.585-5.581-58.555-12.29c4.421-2.723,9.461-3.688,14.384-4.898
			c5.817-1.431,11.191-3.717,16.037-7.238c2.062,1.749,1.793-0.068,1.931-1.262c1.586-1.581,3.173-3.161,4.759-4.741
			c0.422-0.501,0.845-1.001,1.267-1.502c5.469-7.214,7.15-15.443,6.514-24.294c7.868,0.426,15.573-0.87,23.275-2.204
			c0.362,4.299,0.695,8.602,1.096,12.896c0.369,3.958,2.617,6.151,6.408,7.298c11.445,3.462,22.824,7.147,34.255,10.659
			C723.628,213.032,727.553,214.743,731.104,217.285z"/>
		<path fill-rule="evenodd" clip-rule="evenodd" fill="#C0A28E" d="M677.699,180.898c-7.702,1.334-15.407,2.63-23.275,2.204
			c-0.082-1.718-0.164-3.436-0.246-5.153c8.402,2.189,15.712-2.104,23.434-3.947C677.641,176.302,677.67,178.6,677.699,180.898z"/>
		<path fill-rule="evenodd" clip-rule="evenodd" fill="#88461F" d="M410.084,178.033c0.345,4.625,0.681,9.251,1.035,13.875
			c0.371,4.832,2.686,7.78,7.572,9.193c11.58,3.347,23.049,7.076,34.558,10.65c-5.646,0.217-10.595,2.417-15.465,5.087
			c-24.762,13.578-50.737,14.21-77.352,6.868c-4.823-1.33-9.191-3.846-13.359-6.634c-4.067-2.72-8.462-4.599-13.35-5.22
			c11.329-3.619,22.612-7.395,34.01-10.784c4.831-1.438,7.236-4.17,7.464-9.157c0.212-4.631,0.688-9.25,1.047-13.874
			C387.525,180.312,398.805,180.965,410.084,178.033z"/>
		<path fill-rule="evenodd" clip-rule="evenodd" fill="#030205" d="M333.177,108.621c-3.646-3.349-6.073-7.139-6.59-12.372
			c-0.542-5.487-4.189-9.839-7.794-13.66c-4.65-4.929-5.081-10.167-3.084-16.086c3.181-9.432,8.804-17.457,14.642-25.37
			c5.336-7.233,10.462-14.632,19.507-17.833c1.216-0.431,2.346-1.759,3.646-1.131c5.28,2.548,10.146,0.552,15.164-0.935
			c11.237-3.33,22.726-0.775,34.087-1c6.047-0.12,11.625,2.882,15.949,7.325c2.354,2.417,4.879,3.234,8.207,3.736
			c17.802,2.683,33.452,8.837,40.661,27.423c2.672,6.891,3.286,13.533-1.408,19.836c-0.61,0.821-1.034,1.609-1.146,2.673
			c-0.84,7.996-4.573,14.696-9.742,20.615c-1.818,2.083-2.438,4.243-2.194,6.836c-1.396,1.569-1.811,3.585-1.967,5.505
			c-0.636,7.813-3.354,14.752-8.182,20.896c-0.855,0.38-1.711,0.761-2.568,1.142c-1.235-3.37,0.151-6.552,0.713-9.791
			c1.841-10.616,1.02-21.119-1.277-31.571c-0.64-2.91-2.098-5.328-4.518-6.946c-6.198-4.147-9.803-10.269-13.152-16.637
			c-1.971-3.746-3.449-7.814-6.522-10.833c-1.369,0.822-0.578,3.992-1.875,2.942c-3.46-2.799-3.672,0.671-4.529,1.985
			c-5.426,8.317-12.901,12.76-22.911,12.646c-2.209-0.025-4.041,0.502-4.745,2.774c-1.991,6.428-7.192,7.549-12.898,8.2
			c-7.08,0.807-14.112,2.053-21.197,2.796c-3.155,0.331-3.987,1.268-3.021,4.396c3.655,11.833,2.442,24.056,2.598,36.165
			c0.018,1.381-0.39,2.619-1.19,3.736c-0.338,0.001-0.638-0.107-0.899-0.322c-2.606-4.896-4.048-10.001-4.131-15.66
			C340.732,114.926,338.973,110.28,333.177,108.621z"/>
		<path fill-rule="evenodd" clip-rule="evenodd" fill="#88461F" d="M345.838,136.085c0.801-1.117,1.208-2.355,1.19-3.736
			c-0.156-12.109,1.057-24.333-2.598-36.165c-0.966-3.128-0.135-4.065,3.021-4.396c7.085-0.743,14.117-1.989,21.197-2.796
			c5.707-0.651,10.908-1.772,12.898-8.2c0.704-2.272,2.536-2.799,4.745-2.774c10.009,0.114,17.485-4.33,22.911-12.646
			c0.857-1.314,1.069-4.784,4.529-1.985c1.297,1.049,0.506-2.12,1.875-2.942c3.073,3.019,4.552,7.087,6.522,10.833
			c3.35,6.368,6.954,12.489,13.152,16.637c2.42,1.619,3.878,4.036,4.518,6.946c2.297,10.452,3.118,20.955,1.277,31.571
			c-0.562,3.239-1.948,6.421-0.713,9.791c-2.261,15.446-11.101,25.688-25.125,31.886c-1.783,0.788-3.757,1.337-5.102,2.928
			c-11.324,4.708-22.641,5.246-33.947-0.06c-5.113-2.986-10.35-5.783-15.314-9.001C351.542,155.926,348.202,146.257,345.838,136.085
			z"/>
		<path fill-rule="evenodd" clip-rule="evenodd" fill="#753E1B" d="M376.189,170.976c11.307,5.306,22.623,4.768,33.947,0.06
			c-0.018,2.332-0.035,4.665-0.053,6.998c-11.279,2.932-22.559,2.278-33.839,0.005C376.226,175.684,376.208,173.33,376.189,170.976z
			"/>
		<path fill-rule="evenodd" clip-rule="evenodd" fill="#88461F" d="M333.177,108.621c5.795,1.659,7.555,6.305,7.631,11.481
			c0.083,5.659,1.525,10.764,4.131,15.66C334.434,131.917,328.396,117.983,333.177,108.621z"/>
		<path fill-rule="evenodd" clip-rule="evenodd" fill="#88461F" d="M442.932,135.08c4.828-6.144,7.546-13.083,8.182-20.896
			c0.156-1.92,0.571-3.936,1.967-5.505c3.606,5.16,2.257,10.371-0.147,15.391C450.727,128.677,448.142,133.119,442.932,135.08z"/>
		<path fill-rule="evenodd" clip-rule="evenodd" fill="#F8D3B4" d="M641.885,213.64c-0.138,1.193,0.131,3.011-1.931,1.262
			C640.189,213.856,641.156,213.93,641.885,213.64z"/>
		<path fill-rule="evenodd" clip-rule="evenodd" fill="#F8D3B4" d="M647.91,207.396c-0.422,0.501-0.845,1.001-1.267,1.502
			C647.066,208.397,647.488,207.896,647.91,207.396z"/>
		<path fill-rule="evenodd" clip-rule="evenodd" fill="#FFEFCF" d="M121.288,111.942c-0.472-2.959,1.387-3.263,3.558-3.007
			c1.672,0.197,4.125-1.135,4.348,2.22c0.106,1.602,0.726,3.169,1.114,4.752c-0.548-0.561-1.477-1.058-1.586-1.694
			C127.725,108.418,124.703,109.61,121.288,111.942z"/>
		<path fill-rule="evenodd" clip-rule="evenodd" fill="#FFEFCF" d="M93.154,126.257c4.428,0.872,8.88,0.938,13.35,0.396
			c0.111,0.117,0.223,0.235,0.335,0.353C104.52,128.773,95.597,128.285,93.154,126.257z"/>
		<path fill-rule="evenodd" clip-rule="evenodd" fill="#FFEFCF" d="M131.149,117.774c0.447,0.642,0.894,1.283,1.343,1.924
			C131.173,119.667,131.102,118.763,131.149,117.774z"/>
		<path fill-rule="evenodd" clip-rule="evenodd" fill="#FFEFCF" d="M130.178,115.75c0.361,0.723,0.722,1.445,1.083,2.168
			C130.126,117.583,130.088,116.698,130.178,115.75z"/>
		<path fill-rule="evenodd" clip-rule="evenodd" fill="#FFEFCF" d="M132.233,119.592c0.415,0.439,0.83,0.879,1.246,1.319
			C132.786,120.734,132.304,120.357,132.233,119.592z"/>
		<path fill-rule="evenodd" clip-rule="evenodd" fill="#F9D3B4" d="M166.013,92.904c-1.557-0.165-3.114-0.329-4.671-0.494
			c0.527-0.344,1.054-0.688,1.581-1.032c-0.434-0.124-0.867-0.353-1.301-0.355c-5.627-0.022-11.254-0.013-16.881-0.009
			c-1.244,0-2.31,0.274-2.585,1.728c-4.939,1.548-10.562,2.065-12.432,8.242c-2.49,2.096-5.411,2.364-8.481,2
			c-1.048-7.845-7.454-8.745-13.354-10.301c-0.127-0.298-0.213-0.829-0.389-0.861c-7.036-1.281-14.078-1.394-21.106,0.055
			c-0.168,0.035-0.233,0.575-0.346,0.879c-1.747,0.244-3.495,0.487-6,0.837c3.232-6.616,0.094-13.157,2.177-19.489
			c2.149-6.537,10.108-12.299,16.825-10.958c4.466,0.891,8.534,1.942,10.463-4.01c0.742-2.288,2.81-1.143,4.143-0.144
			c3.135,2.349,6.155,2.963,9.509,0.334c1.808-1.417,3.518-0.271,4.888,1.021c2.974,2.803,6.171,3.799,9.922,1.613
			c2.02-1.177,3.777-0.812,5.37,0.842c1.033,1.072,2.294,2.839,3.609,2.321c4.915-1.933,9.578-0.058,14.362,0.149
			c2.051,0.088,3.427,0.438,3.792,2.119c1.589,7.306,7.028,13.583,5.784,21.629C171.001,92.493,167.583,91.539,166.013,92.904z"/>
		<path fill-rule="evenodd" clip-rule="evenodd" fill="#F8D3B4" d="M94.004,122.95c-6.402-1.149-9.713-5.491-10.969-11.39
			c-0.75-3.526-3.664-7.191,0.063-10.913c1.852-1.848,3.747-3.394,6.354-3.499c5.809-0.235,11.624-0.554,17.421,0.378
			c4.883,0.785,9.171,2.253,9.935,8.011c0.788,5.938-0.273,11.325-5.4,15.132c-1.568,1.165-3.312,2.229-5.421,2.233
			C101.987,121.534,97.993,121.45,94.004,122.95z"/>
		<path fill-rule="evenodd" clip-rule="evenodd" fill="#F8D3B4" d="M134.084,105.007c0.159-4.015,2.818-5.846,6.224-6.765
			c7.018-1.893,14.213-1.597,21.329-0.983c4.645,0.4,7.138,4.091,6.809,8.793c-1.041,14.875-12.69,21.997-26.485,16.158
			c-3.316-1.404-6.017-3.489-7.021-7.189C135.561,111.605,135.313,108.264,134.084,105.007z"/>
		<path fill-rule="evenodd" clip-rule="evenodd" fill="#FFEFCF" d="M86.047,92.755c0.113-0.305,0.178-0.844,0.346-0.879
			c7.028-1.449,14.07-1.336,21.106-0.055c0.176,0.032,0.262,0.563,0.389,0.861C100.604,91.645,93.326,92.211,86.047,92.755z"/>
		<path fill-rule="evenodd" clip-rule="evenodd" fill="#FFEFCF" d="M142.155,92.741c0.275-1.454,1.341-1.727,2.585-1.728
			c5.627-0.003,11.254-0.013,16.881,0.009c0.434,0.002,0.867,0.231,1.301,0.355c-0.527,0.344-1.054,0.688-1.581,1.032
			C154.937,92.018,148.538,91.885,142.155,92.741z"/>
		<path fill-rule="evenodd" clip-rule="evenodd" fill="#EAC6AD" d="M94.004,122.95c3.988-1.5,7.983-1.417,11.983-0.046
			C101.998,124.221,98.004,124.348,94.004,122.95z"/>
		<path fill-rule="evenodd" clip-rule="evenodd" fill="#EAC6AD" d="M121.242,102.982c3.07,0.365,5.991,0.097,8.481-2
			C128.543,105.262,124.665,106.176,121.242,102.982z"/>
		<path fill-rule="evenodd" clip-rule="evenodd" fill="#EAC6AD" d="M134.084,105.007c1.229,3.257,1.477,6.598,0.856,10.014
			C133.284,111.8,132.823,108.477,134.084,105.007z"/>
		<path fill-rule="evenodd" clip-rule="evenodd" fill="#F8D3B4" d="M166.013,92.904c1.571-1.366,4.988-0.412,4.88-3.886
			c0.781,1.426,1.562,2.851,2.589,4.726C170.601,94.244,168.331,93.245,166.013,92.904z"/>
	</g>
</g>
</svg>
